<svg xmlns="http://www.w3.org/2000/svg" viewBox="0 0 420 540" fill="none">
  <rect width="420" height="540" fill="#f8f6f0"/>
  <rect width="420" height="540" fill="none" stroke="#2a3040" stroke-width="2"/>
  <!-- Header bar -->
  <rect x="0" y="0" width="420" height="130" fill="#2a3040"/>
  <text x="30" y="55" font-family="Georgia,serif" font-size="36" fill="#e8e4dc" font-weight="bold">SHIT</text>
  <text x="30" y="82" font-family="'Segoe UI',sans-serif" font-size="11" fill="#c4a84a">Vol. 1 · Issue 1 · June 2026</text>
  <line x1="0" y1="130" x2="420" y2="130" stroke="#c4a84a" stroke-width="2"/>
  
  <!-- Main feature article -->
  <text x="30" y="165" font-family="Georgia,serif" font-size="18" fill="#2a3040" font-weight="bold">Prenatal Excellence and</text>
  <text x="30" y="188" font-family="Georgia,serif" font-size="18" fill="#2a3040" font-weight="bold">Citation-Dependent Human Development</text>
  
  <!-- Fake chart -->
  <rect x="30" y="210" width="360" height="100" fill="#eef2f4" rx="2"/>
  <rect x="50" y="230" width="40" height="70" rx="2" fill="#5a9abf" opacity="0.5"/>
  <rect x="100" y="215" width="40" height="85" rx="2" fill="#5a9abf" opacity="0.5"/>
  <rect x="150" y="205" width="40" height="95" rx="2" fill="#5a9abf" opacity="0.6"/>
  <rect x="200" y="200" width="40" height="100" rx="2" fill="#5a9abf" opacity="0.6"/>
  <rect x="250" y="195" width="40" height="105" rx="2" fill="#5a9abf" opacity="0.7"/>
  <rect x="300" y="190" width="40" height="110" rx="2" fill="#c4a84a" opacity="0.5"/>
  <!-- Trend arrow -->
  <path d="M70 228 L120 210 L170 200 L220 195 L270 188 L320 182" stroke="#c4a84a" stroke-width="2" fill="none"/>
  
  <!-- Article list -->
  <rect x="30" y="330" width="360" height="180" fill="#fafaf8" stroke="#d5d1c8" stroke-width="1" rx="2"/>
  <text x="50" y="355" font-family="Georgia,serif" font-size="14" fill="#2a3040" font-weight="bold">Table of Contents</text>
  <line x1="50" y1="365" x2="370" y2="365" stroke="#e0dcd4" stroke-width="1"/>
  
  <rect x="50" y="375" width="20" height="12" rx="6" fill="#5a9abf"/>
  <text x="80" y="385" font-family="'Segoe UI',sans-serif" font-size="9" fill="#4a453c">Prenatal First-Author Publications Predict Future Academy Membership</text>
  
  <rect x="50" y="398" width="20" height="12" rx="6" fill="#146f7a"/>
  <text x="80" y="408" font-family="'Segoe UI',sans-serif" font-size="9" fill="#4a453c">The Evolutionary Ecology of Reviewer 2 in Competitive Academic Habitats</text>
  
  <rect x="50" y="421" width="20" height="12" rx="6" fill="#8f2333"/>
  <text x="80" y="431" font-family="'Segoe UI',sans-serif" font-size="9" fill="#4a453c">Coffee Intake Lowers P-Values Through Citation-Dependent Pathways</text>
  
  <rect x="50" y="444" width="20" height="12" rx="6" fill="#c4a84a"/>
  <text x="80" y="454" font-family="'Segoe UI',sans-serif" font-size="9" fill="#4a453c">A Transformer-Based Framework for Generating Statistically Significant Sentences</text>
  
  <rect x="50" y="467" width="20" height="12" rx="6" fill="#2d4a5e"/>
  <text x="80" y="477" font-family="'Segoe UI',sans-serif" font-size="9" fill="#4a453c">Administrative Feng-Shui Improves Grant Success in Windowless Offices</text>
  
  <rect x="50" y="490" width="20" height="12" rx="6" fill="#5a9abf"/>
  <text x="80" y="500" font-family="'Segoe UI',sans-serif" font-size="9" fill="#4a453c">The Dataset That Would Have Solved Everything If It Existed</text>
  
  <!-- Bottom tagline -->
  <text x="210" y="520" text-anchor="middle" font-family="Georgia,serif" font-size="11" fill="#6a7b8c" font-style="italic">Official-looking scholarship for fictional findings.</text>
</svg>
