<svg xmlns="http://www.w3.org/2000/svg" viewBox="0 0 480 280" fill="none">
  <rect width="480" height="280" fill="#f7f7fb"/>
  <rect x="1" y="1" width="478" height="278" fill="none" stroke="#38436b" stroke-width="2"/>
  <text x="240" y="28" text-anchor="middle" font-family="Georgia,serif" font-size="13" fill="#38436b" font-weight="bold">Citation Network — "Things That Cite This Paper"</text>
  
  <!-- Central node -->
  <rect x="200" y="100" width="80" height="50" rx="4" fill="#38436b" stroke="#2a3050" stroke-width="2"/>
  <text x="240" y="118" text-anchor="middle" font-family="Georgia,serif" font-size="8" fill="#e8e4dc" font-weight="bold">SHIT Journal</text>
  <text x="240" y="132" text-anchor="middle" font-family="Georgia,serif" font-size="7" fill="#c4a84a">Vol. 1, Issue 1</text>
  
  <!-- Citation nodes with witty labels -->
  <rect x="50" y="40" width="100" height="28" rx="14" fill="#5a9abf" opacity="0.7"/>
  <text x="100" y="58" text-anchor="middle" font-family="'Segoe UI',sans-serif" font-size="8" fill="white">Coffee &amp; p-Values</text>
  
  <rect x="330" y="30" width="100" height="28" rx="14" fill="#146f7a" opacity="0.7"/>
  <text x="380" y="48" text-anchor="middle" font-family="'Segoe UI',sans-serif" font-size="8" fill="white">Reviewer 2 Ecology</text>
  
  <rect x="20" y="160" width="120" height="28" rx="14" fill="#8f2333" opacity="0.6"/>
  <text x="80" y="178" text-anchor="middle" font-family="'Segoe UI',sans-serif" font-size="8" fill="white">Prenatal Publications</text>
  
  <rect x="350" y="150" width="100" height="28" rx="14" fill="#c4a84a" opacity="0.7"/>
  <text x="400" y="168" text-anchor="middle" font-family="'Segoe UI',sans-serif" font-size="8" fill="white">Feng-Shui Grants</text>
  
  <rect x="160" y="210" width="140" height="28" rx="14" fill="#2d4a5e" opacity="0.7"/>
  <text x="230" y="228" text-anchor="middle" font-family="'Segoe UI',sans-serif" font-size="8" fill="white">Negative Results</text>
  
  <!-- Connecting lines -->
  <line x1="145" y1="60" x2="200" y2="110" stroke="#5a9abf" stroke-width="1.5" opacity="0.5"/>
  <line x1="335" y1="50" x2="270" y2="108" stroke="#146f7a" stroke-width="1.5" opacity="0.5"/>
  <line x1="135" y1="165" x2="200" y2="130" stroke="#8f2333" stroke-width="1.5" opacity="0.5"/>
  <line x1="355" y1="160" x2="275" y2="135" stroke="#c4a84a" stroke-width="1.5" opacity="0.5"/>
  <line x1="200" y1="214" x2="235" y2="148" stroke="#2d4a5e" stroke-width="1.5" opacity="0.5"/>
  
  <!-- Metadata -->
  <rect x="60" y="230" width="100" height="20" rx="3" fill="#e8e5dd" stroke="#d0ccc4" stroke-width="0.5"/>
  <text x="110" y="244" text-anchor="middle" font-family="'Segoe UI',sans-serif" font-size="8" fill="#4a453c">Total Citations: 1,247</text>
  
  <rect x="180" y="230" width="120" height="20" rx="3" fill="#e8e5dd" stroke="#d0ccc4" stroke-width="0.5"/>
  <text x="240" y="244" text-anchor="middle" font-family="'Segoe UI',sans-serif" font-size="8" fill="#8f2333">h-index: ∞ (self-citing)</text>
  
  <rect x="320" y="230" width="100" height="20" rx="3" fill="#e8e5dd" stroke="#d0ccc4" stroke-width="0.5"/>
  <text x="370" y="244" text-anchor="middle" font-family="'Segoe UI',sans-serif" font-size="8" fill="#4a453c">DOI: 10.shit/2026.cite</text>
</svg>
